<svg width="192" height="192" viewBox="0 0 192 192" fill="none" xmlns="http://www.w3.org/2000/svg">
  <rect width="192" height="192" fill="#f3f4f6"/>
  
  <!-- Main Logo positioned to match your design -->
  <g transform="translate(24, 60)">
    <!-- Large B (top left) -->
    <path d="M0 0 L0 48 L24 48 Q32 48 32 40 Q32 36 28 34 Q32 32 32 28 Q32 20 24 20 L0 20 Z M8 28 L20 28 Q24 28 24 30 Q24 32 20 32 L8 32 Z M8 36 L22 36 Q26 36 26 38 Q26 40 22 40 L8 40 Z" fill="#000000"/>
    
    <!-- Vertical divider line -->
    <rect x="68" y="0" width="3" height="48" fill="#000000"/>
    
    <!-- Large S (top right) -->
    <path d="M87 12 Q87 0 99 0 L120 0 Q132 0 132 12 Q132 16 128 18 Q132 20 132 24 Q132 28 128 30 Q132 32 132 36 Q132 48 120 48 L99 48 Q87 48 87 36 L95 36 Q95 40 99 40 L120 40 Q124 40 124 36 Q124 32 120 32 L105 32 Q93 32 93 20 Q93 16 99 14 Q93 12 93 8 Q93 -4 105 -4 L120 -4 Q132 -4 132 8 L124 8 Q124 4 120 4 L99 4 Q95 4 95 8 Q95 12 99 12 L114 12 Q126 12 126 24 Q126 28 120 30 Q126 32 126 36 Q126 48 114 48 L99 48 Q87 48 87 36 Z" fill="#000000"/>
  </g>
  
  <!-- BLACKSMITH TRADERS text -->
  <text x="96" y="130" font-family="Arial, sans-serif" font-size="12" font-weight="normal" letter-spacing="2" fill="#000000" text-anchor="middle">BLACKSMITH TRADERS</text>
  
  <!-- Mirrored B|S at bottom -->
  <g transform="translate(24, 140)">
    <!-- Bottom B -->
    <path d="M0 0 L0 48 L24 48 Q32 48 32 40 Q32 36 28 34 Q32 32 32 28 Q32 20 24 20 L0 20 Z M8 28 L20 28 Q24 28 24 30 Q24 32 20 32 L8 32 Z M8 36 L22 36 Q26 36 26 38 Q26 40 22 40 L8 40 Z" fill="#000000"/>
    
    <!-- Bottom divider line -->
    <rect x="68" y="0" width="3" height="48" fill="#000000"/>
    
    <!-- Bottom S -->
    <path d="M87 12 Q87 0 99 0 L120 0 Q132 0 132 12 Q132 16 128 18 Q132 20 132 24 Q132 28 128 30 Q132 32 132 36 Q132 48 120 48 L99 48 Q87 48 87 36 L95 36 Q95 40 99 40 L120 40 Q124 40 124 36 Q124 32 120 32 L105 32 Q93 32 93 20 Q93 16 99 14 Q93 12 93 8 Q93 -4 105 -4 L120 -4 Q132 -4 132 8 L124 8 Q124 4 120 4 L99 4 Q95 4 95 8 Q95 12 99 12 L114 12 Q126 12 126 24 Q126 28 120 30 Q126 32 126 36 Q126 48 114 48 L99 48 Q87 48 87 36 Z" fill="#000000"/>
  </g>
</svg>