<svg width="192" height="192" viewBox="0 0 192 192" fill="none" xmlns="http://www.w3.org/2000/svg">
  <rect width="192" height="192" rx="24" fill="#e5e5e5"/>
  
  <!-- Main B|S logo design based on your image -->
  <g transform="translate(48, 60)">
    <!-- Letter B -->
    <path d="M0 0 L0 72 L36 72 Q48 72 48 60 Q48 48 36 36 Q48 36 48 24 Q48 0 36 0 Z M12 12 L12 24 L30 24 Q36 24 36 18 Q36 12 30 12 Z M12 36 L12 60 L30 60 Q36 60 36 48 Q36 36 30 36 Z" fill="#000000"/>
    
    <!-- Vertical divider -->
    <rect x="60" y="0" width="3" height="72" fill="#000000"/>
    
    <!-- Letter S -->
    <path d="M75 12 Q75 0 87 0 Q99 0 99 12 Q99 18 93 24 Q87 30 87 36 Q87 42 93 42 L96 42 Q99 42 99 48 Q99 60 87 60 Q75 60 75 48 Q75 42 81 36 Q87 30 87 24 Q87 18 81 18 L78 18 Q75 18 75 12" fill="#000000"/>
  </g>
  
  <!-- BLACKSMITH TRADERS text -->
  <text x="96" y="156" text-anchor="middle" font-family="Arial, sans-serif" font-size="10" font-weight="600" letter-spacing="3px" fill="#000000">BLACKSMITH TRADERS</text>
</svg>