<svg width="512" height="512" viewBox="0 0 512 512" fill="none" xmlns="http://www.w3.org/2000/svg">
  <rect width="512" height="512" fill="#f3f4f6"/>
  <g transform="translate(56, 128)">
    <!-- B -->
    <path d="M20 40 L20 200 L120 200 Q160 200 160 160 Q160 140 140 130 Q160 120 160 100 Q160 60 120 60 L20 60 Z M60 80 L110 80 Q120 80 120 90 Q120 100 110 100 L60 100 Z M60 120 L115 120 Q130 120 130 130 Q130 140 115 140 L60 140 Z" fill="#000000"/>
    
    <!-- Vertical Line -->
    <rect x="190" y="40" width="8" height="160" fill="#000000"/>
    
    <!-- S -->
    <path d="M240 80 Q240 40 280 40 L350 40 Q390 40 390 80 Q390 100 370 110 Q390 120 390 140 Q390 160 370 170 Q390 180 390 200 Q390 240 350 240 L280 240 Q240 240 240 200 L270 200 Q270 210 280 210 L350 210 Q360 210 360 200 Q360 190 350 190 L300 190 Q260 190 260 150 Q260 130 280 120 Q260 110 260 90 Q260 50 300 50 L350 50 Q390 50 390 90 L360 90 Q360 80 350 80 L280 80 Q270 80 270 90 Q270 100 280 100 L330 100 Q370 100 370 140 Q370 160 350 170 Q370 180 370 200 Q370 240 330 240 L280 240 Q240 240 240 200 Z" fill="#000000"/>
  </g>
  
  <!-- Company Name -->
  <text x="256" y="320" font-family="Arial, sans-serif" font-size="24" font-weight="bold" fill="#000000" text-anchor="middle">BLACKSMITH TRADERS</text>
</svg>